<svg xmlns="http://www.w3.org/2000/svg" viewBox="0 0 1200 630" width="1200" height="630">
  <defs>
    <radialGradient id="bg" cx="50%" cy="50%" r="70%">
      <stop offset="0%" stop-color="#1A2432"/>
      <stop offset="100%" stop-color="#0D131A"/>
    </radialGradient>
    <linearGradient id="nixBlue" x1="0%" y1="0%" x2="100%" y2="100%">
      <stop offset="0%" stop-color="#7EBAE4"/>
      <stop offset="100%" stop-color="#5277C3"/>
    </linearGradient>
    <pattern id="grid" width="40" height="40" patternUnits="userSpaceOnUse">
      <path d="M 40 0 L 0 0 0 40" fill="none" stroke="#2D3A4C" stroke-width="1" opacity="0.3"/>
    </pattern>
  </defs>

  <rect width="1200" height="630" fill="url(#bg)"/>
  <rect width="1200" height="630" fill="url(#grid)"/>

  <g transform="translate(120, 150) scale(0.65)">
    <polygon points="256,40 440,146 440,366 256,472 72,366 72,146" fill="#1A2432" stroke="url(#nixBlue)" stroke-width="24" stroke-linejoin="round"/>
    <circle cx="256" cy="256" r="48" fill="url(#nixBlue)" />
    <circle cx="256" cy="110" r="28" fill="#7EBAE4" />
    <line x1="256" y1="138" x2="256" y2="208" stroke="url(#nixBlue)" stroke-width="20" stroke-linecap="round"/>
    <circle cx="130" cy="328" r="28" fill="#7EBAE4" />
    <line x1="154" y1="314" x2="214" y2="280" stroke="url(#nixBlue)" stroke-width="20" stroke-linecap="round"/>
    <circle cx="382" cy="328" r="28" fill="#7EBAE4" />
    <line x1="358" y1="314" x2="298" y2="280" stroke="url(#nixBlue)" stroke-width="20" stroke-linecap="round"/>
    <circle cx="256" cy="256" r="140" fill="none" stroke="#7EBAE4" stroke-width="6" stroke-dasharray="15 15" opacity="0.4"/>
  </g>

  <text x="500" y="300" font-family="Liberation Sans" font-weight="bold" font-size="80" fill="#FFFFFF" letter-spacing="-1">nixos-gateway</text>
  <text x="505" y="360" font-family="Liberation Sans" font-weight="normal" font-size="30" fill="#7EBAE4">Declarative &#x2022; Scalable &#x2022; High-Performance</text>
  <text x="505" y="410" font-family="Liberation Sans" font-weight="normal" font-size="22" fill="#A0ABC0" opacity="0.9">The ultimate enterprise edge routing and security platform</text>
  <text x="505" y="445" font-family="Liberation Sans" font-weight="normal" font-size="22" fill="#A0ABC0" opacity="0.9">built on NixOS.</text>
</svg>
